<?xml version="1.0" encoding="utf-8"?>
<!-- Generator: Adobe Illustrator 24.0.1, SVG Export Plug-In . SVG Version: 6.00 Build 0)  -->
<svg version="1.1" id="Calque_1" xmlns="http://www.w3.org/2000/svg" xmlns:xlink="http://www.w3.org/1999/xlink" x="0px" y="0px"
	 viewBox="0 0 210 297" style="enable-background:new 0 0 210 297;" xml:space="preserve">
<style type="text/css">
	.st0{fill:#BC1822;stroke:#FFFFFF;stroke-width:2.5;stroke-miterlimit:10;}
	.st1{fill:#DD0B1A;stroke:#FFFFFF;stroke-width:2.5;stroke-miterlimit:10;}
	.st2{fill:#F4ABCD;stroke:#FFFFFF;stroke-width:2.5;stroke-miterlimit:10;}
	.st3{fill:#E62836;stroke:#FFFFFF;stroke-width:2.5;stroke-miterlimit:10;}
	.st4{fill:#AF191B;stroke:#FFFFFF;stroke-width:2.5;stroke-miterlimit:10;}
	.st5{fill:#FFFFFF;stroke:#FFFFFF;stroke-width:2.5;stroke-miterlimit:10;}
	.st6{fill:#58B365;stroke:#FFFFFF;stroke-width:2.5;stroke-miterlimit:10;}
	.st7{fill:#68B42E;stroke:#FFFFFF;stroke-width:2.5;stroke-miterlimit:10;}
	.st8{fill:#6CB646;stroke:#FFFFFF;stroke-width:2.5;stroke-miterlimit:10;}
	.st9{fill:#3CA635;stroke:#FFFFFF;stroke-width:2.5;stroke-miterlimit:10;}
	.st10{fill:none;stroke:#FDFDFD;stroke-width:2.5;stroke-miterlimit:10;}
</style>
<g>
	
		<rect x="111.94" y="137.43" transform="matrix(0.7071 -0.7071 0.7071 0.7071 -67.1844 126.1511)" class="st0" width="13.49" height="13.49"/>
	
		<rect x="121.48" y="146.97" transform="matrix(0.7071 -0.7071 0.7071 0.7071 -71.1362 135.6915)" class="st0" width="13.49" height="13.49"/>
	
		<rect x="131.02" y="156.51" transform="matrix(0.7071 -0.7071 0.7071 0.7071 -75.088 145.232)" class="st0" width="13.49" height="13.49"/>
	
		<rect x="140.56" y="166.05" transform="matrix(0.7071 -0.7071 0.7071 0.7071 -79.0397 154.7725)" class="st1" width="13.49" height="13.49"/>
	
		<rect x="102.4" y="146.97" transform="matrix(0.7071 -0.7071 0.7071 0.7071 -76.7248 122.1993)" class="st0" width="13.49" height="13.49"/>
	
		<rect x="111.94" y="156.51" transform="matrix(0.7071 -0.7071 0.7071 0.7071 -80.6766 131.7398)" class="st2" width="13.49" height="13.49"/>
	
		<rect x="131.02" y="175.59" transform="matrix(0.7071 -0.7071 0.7071 0.7071 -88.5802 150.8207)" class="st1" width="13.49" height="13.49"/>
	
		<rect x="92.86" y="156.51" transform="matrix(0.7071 -0.7071 0.7071 0.7071 -86.2653 118.2475)" class="st0" width="13.49" height="13.49"/>
	
		<rect x="102.4" y="166.05" transform="matrix(0.7071 -0.7071 0.7071 0.7071 -90.2171 127.788)" class="st3" width="13.49" height="13.49"/>
	
		<rect x="111.94" y="175.59" transform="matrix(0.7071 -0.7071 0.7071 0.7071 -94.1689 137.3284)" class="st3" width="13.49" height="13.49"/>
	
		<rect x="121.48" y="185.13" transform="matrix(0.7071 -0.7071 0.7071 0.7071 -98.1207 146.8689)" class="st1" width="13.49" height="13.49"/>
	
		<rect x="83.32" y="166.05" transform="matrix(0.7071 -0.7071 0.7071 0.7071 -95.8057 114.2957)" class="st0" width="13.49" height="13.49"/>
	
		<rect x="92.86" y="175.59" transform="matrix(0.7071 -0.7071 0.7071 0.7071 -99.7575 123.8362)" class="st0" width="13.49" height="13.49"/>
	
		<rect x="102.4" y="185.13" transform="matrix(0.7071 -0.7071 0.7071 0.7071 -103.7093 133.3766)" class="st0" width="13.49" height="13.49"/>
	
		<rect x="111.94" y="194.67" transform="matrix(0.7071 -0.7071 0.7071 0.7071 -107.6611 142.9171)" class="st4" width="13.49" height="13.49"/>
	
		<rect x="121.48" y="166.05" transform="matrix(0.7071 -0.7071 0.7071 0.7071 -84.6284 141.2802)" class="st5" width="13.49" height="13.49"/>
</g>
<g>
	<polygon class="st6" points="124.4,126.4 53.1,167.15 53.1,127.07 124.4,86.96 	"/>
	<polyline class="st7" points="112.71,93.61 124.4,86.96 124.4,126.4 112.56,132.96 112.71,93.61 	"/>
	<polyline class="st8" points="100.94,100.42 112.64,93.77 112.64,133.21 100.8,139.77 100.94,100.42 	"/>
	<polyline class="st9" points="53.11,126.96 64.81,120.31 64.81,159.75 52.97,166.31 53.11,126.96 	"/>
	<line class="st10" x1="88.92" y1="105.25" x2="88.92" y2="146.49"/>
	<line class="st10" x1="100.76" y1="99.33" x2="100.76" y2="140.57"/>
	<line class="st10" x1="65.07" y1="118.55" x2="65.07" y2="159.79"/>
	<line class="st10" x1="76.91" y1="112.62" x2="76.91" y2="153.86"/>
</g>
</svg>
